<?xml version="1.0" encoding="UTF-8"?>
<svg xmlns="http://www.w3.org/2000/svg" xmlns:xlink="http://www.w3.org/1999/xlink" viewBox="0 0 543.53 250.98">
  <defs>
    <linearGradient id="Dégradé_sans_nom_2" data-name="Dégradé sans nom 2" x1="273.47" y1="6.72" x2="271.95" y2="245.17" gradientUnits="userSpaceOnUse">
      <stop offset="0" stop-color="#fff"/>
      <stop offset="1" stop-color="#000"/>
    </linearGradient>
  </defs>
  <g id="Calque_1">
    <rect x="12.24" y="9.71" width="520.94" height="232.47" rx="25.81" ry="25.81" style="fill: none; stroke: url(#Dégradé_sans_nom_2); stroke-miterlimit: 10; stroke-width: 3px;"/>
  </g>
  <g id="Calque_2">
    <g>
      <rect x=".95" y="55.54" width="543.53" height="93.03" style="fill: none;"/>
      <path d="M75.32,88.09c0-23.4,26.55-55.5,75.15-55.5,27.15,0,48.3,13.35,48.3,34.65,0,23.25-22.05,38.1-45.45,38.1-5.7,0-7.5-5.7-5.55-5.7,20.85,0,34.95-15.45,34.95-34.5,0-14.1-8.4-26.1-31.2-26.1-39.75,0-59.55,30.9-59.55,49.35,0,7.35,3.3,12.45,9.75,12.45,8.7,0,16.05-9.9,16.05-15.15,0-1.95,4.8.15,4.8,4.65,0,8.55-10.05,22.35-24.9,22.35-10.95,0-22.35-10.2-22.35-24.6ZM89.72,138.64c0-2.4.9-4.2,1.8-4.2.75,0,1.2,1.5,3,1.5,8.7,0,18.9-4.35,38.55-47.55,12.9-28.35,24.9-39,37.2-39,4.05,0,5.4,3.75,3.9,3.75-25.5,0-36.9,99.3-70.05,99.3-8.25,0-14.4-8.4-14.4-13.8Z" style="fill: #1d1d1b;"/>
      <path d="M185.57,131.29c0-7.95,1.35-10.8,31.05-74.7.3-.6.9-1.05,1.5-1.05h12c.6,0,.9.75.75,1.2-30.75,65.85-32.1,68.85-32.1,75.45,0,1.65.75,2.7,2.1,2.7,4.8,0,10.65-6.75,20.1-21.6.3-.15.6-.3.75,0,.9.75,2.4,2.55,3.15,3.45.3.15.3.6.15.9-15,24.6-19.65,26.25-28.35,26.25-6.3,0-11.1-6-11.1-12.6Z" style="fill: #1d1d1b;"/>
      <path d="M287.41,117.64c-15,24.6-20.7,26.25-28.35,26.25-6.3,0-11.25-4.8-11.25-11.55v-.3c-6,8.55-11.55,11.85-17.4,11.85-8.4,0-13.2-6.75-13.2-16.5,0-15.45,14.4-39.45,33.45-39.45,5.25,0,9.45,2.1,11.1,6.9l.9-2.1c.3-.45.9-.9,1.5-.9h12c.6,0,.9.6.75,1.2-15.3,32.55-15.75,36-15.75,40.35,0,1.65.75,2.7,2.1,2.7,2.85,0,10.65-7.95,20.1-22.8.15-.15.6-.3.75,0,.75.9,2.4,2.55,3.15,3.45.3.15.3.6.15.9ZM251.86,93.49c-9.75,0-21.15,23.25-21.15,34.95,0,3.6,1.65,5.85,3.9,5.85,4.8,0,11.55-7.95,18-18.9l4.5-10.5c.6-6.9-1.65-11.4-5.25-11.4Z" style="fill: #1d1d1b;"/>
      <path d="M313.36,107.29c6.3-7.2,6.75-14.25,1.95-14.25-8.4,0-22.2,18.6-22.2,33.15,0,5.4,2.25,10.5,7.35,10.5,6,0,18.9-3.45,31.35-23.25.15-.3.6-.45.75-.15l3,3.45c.3.15.3.6.15.9-16.2,26.25-29.55,27.45-38.4,27.45-12.3,0-17.7-9.45-17.7-20.4,0-16.65,16.5-37.35,34.5-37.35,8.1,0,12.6,3,12.6,10.05,0,6.15-6.15,11.55-10.65,11.55-1.2,0-2.7-.45-2.7-1.65Z" style="fill: #1d1d1b;"/>
      <path d="M330.61,143.89h-12c-.6,0-1.05-.6-.75-1.2l40.2-86.1c.3-.6.9-1.05,1.5-1.05h11.85c.6,0,1.05.75.75,1.2l-19.5,41.85c7.95-8.7,14.25-11.25,21-10.05,6.75,1.2,11.4,10.05,3,24.3-5.7,9.6-8.7,16.95-8.55,19.5.15,2.55,1.5,3.75,3.3,3.75,3.9-.15,13.95-10.2,21.75-22.65.15-.3.6-.45.75-.15l3.15,3.45c.15.15.15.6,0,.9-15.15,24.6-23.25,26.25-31.05,26.25-6.3,0-10.8-3.75-11.55-9-.75-4.95.9-9.9,7.95-22.05s8.7-18.15,4.35-18.15c-3.3,0-12.75,6.15-24.9,27.15l-9.9,21.15c-.15.6-.75.9-1.35.9Z" style="fill: #1d1d1b;"/>
      <path d="M403.36,120.94c-.3,1.8-.6,3.45-.6,5.25,0,5.4,2.25,9.9,7.35,9.9,6,0,20.1-3,32.55-22.65.15-.3.45-.45.75-.15l3,3.45c.15.15.15.6,0,.9-16.2,26.25-30.6,27.45-39.45,27.45-12.3,0-17.7-9.45-17.7-20.4,0-16.65,16.5-37.35,34.5-37.35,8.1,0,13.8,3,13.8,10.05,0,14.4-22.05,22.95-34.2,23.55ZM404.86,115.39c20.1-5.25,25.35-22.35,20.1-22.35-6.3,0-15.9,10.8-20.1,22.35Z" style="fill: #1d1d1b;"/>
      <path d="M467.26,61.25h11.85c.6,0,1.05.6.75,1.2l-8.25,17.7h8.1c.6,0,1.05.6.75,1.2l-2.55,5.25c-.3.6-.75.9-1.35.9h-8.4l-3.9,8.55c-12.75,28.05-13.8,31.05-13.8,36.15,0,1.65.9,2.7,2.25,2.7,4.65,0,12.75-6.75,22.35-21.6.15-.15.45-.3.75,0,.75.75,2.4,2.55,3.15,3.45.15.15.15.6,0,.9-15,24.6-21.9,26.25-30.6,26.25-6.15,0-11.1-6-11.1-12.6,0-6,.75-9.15,12.9-35.4l3.9-8.4h-5.85c-.6,0-1.05-.6-.75-1.2l2.55-5.25c.3-.6.75-.9,1.35-.9h6l8.4-17.85c.3-.6.9-1.05,1.5-1.05Z" style="fill: #1d1d1b;"/>
    </g>
    <g>
      <rect x=".95" y="181.67" width="543.53" height="23.49" style="fill: none;"/>
      <path d="M127.62,201.55l-7.17-19.88h3.22l5.85,16.52,5.85-16.52h3.22l-7.2,19.88h-3.78Z" style="fill: #1d1d1b;"/>
      <path d="M146.15,201.88c-1.42,0-2.66-.32-3.72-.95-1.06-.63-1.89-1.54-2.46-2.72-.58-1.18-.87-2.55-.87-4.12s.29-2.96.87-4.12c.58-1.16,1.4-2.06,2.46-2.7s2.31-.97,3.72-.97,2.66.32,3.72.97,1.89,1.54,2.46,2.7c.58,1.16.87,2.53.87,4.12s-.29,2.94-.87,4.12c-.58,1.18-1.4,2.08-2.46,2.72-1.06.63-2.31.95-3.72.95ZM146.15,199.31c1.27,0,2.25-.46,2.94-1.39.69-.92,1.04-2.2,1.04-3.82s-.35-2.9-1.04-3.82c-.69-.92-1.67-1.39-2.94-1.39s-2.23.46-2.93,1.39c-.7.92-1.05,2.2-1.05,3.82s.35,2.9,1.05,3.82c.7.92,1.67,1.39,2.93,1.39Z" style="fill: #1d1d1b;"/>
      <path d="M161.95,201.88c-1.4,0-2.58-.21-3.54-.64s-1.7-1.02-2.23-1.78-.82-1.63-.9-2.62l3.05-.14c.15.82.5,1.48,1.06,1.96s1.41.73,2.55.73c.93,0,1.67-.15,2.21-.45.54-.3.81-.77.81-1.43,0-.35-.09-.66-.27-.91-.18-.25-.52-.47-1.02-.64-.5-.18-1.25-.35-2.24-.52-1.47-.28-2.63-.61-3.47-.98-.84-.37-1.44-.85-1.79-1.43-.35-.58-.53-1.28-.53-2.1,0-1.36.51-2.47,1.53-3.33,1.02-.86,2.49-1.29,4.41-1.29,1.29,0,2.37.22,3.25.66.88.44,1.56,1.03,2.06,1.76.49.74.81,1.56.94,2.48l-3.05.17c-.09-.52-.28-.98-.55-1.36-.27-.38-.63-.68-1.08-.9-.45-.21-.98-.32-1.6-.32-.95,0-1.66.19-2.13.56-.47.37-.7.86-.7,1.46,0,.45.11.81.32,1.09.21.28.56.51,1.05.69.48.18,1.13.33,1.93.46,1.55.26,2.76.58,3.64.97.88.38,1.49.85,1.85,1.41.35.56.53,1.24.53,2.04,0,.93-.26,1.73-.78,2.38-.52.65-1.24,1.15-2.16,1.5s-1.97.52-3.16.52Z" style="fill: #1d1d1b;"/>
      <path d="M178.13,205.75v-19.1h2.8l.08,3.19-.34-.17c.37-1.1.99-1.94,1.85-2.51.86-.57,1.85-.85,2.97-.85,1.46,0,2.66.36,3.6,1.08.94.72,1.64,1.67,2.1,2.84.46,1.18.69,2.46.69,3.86s-.23,2.69-.69,3.86c-.46,1.18-1.16,2.12-2.1,2.84-.94.72-2.14,1.08-3.6,1.08-.75,0-1.45-.13-2.1-.39s-1.21-.63-1.67-1.11c-.46-.48-.78-1.04-.97-1.69l.34-.34v7.39h-2.97ZM184.96,199.31c1.19,0,2.13-.46,2.81-1.37.68-.91,1.02-2.19,1.02-3.84s-.34-2.92-1.02-3.84c-.68-.91-1.62-1.37-2.81-1.37-.78,0-1.47.19-2.04.57-.58.38-1.03.97-1.34,1.75s-.48,1.75-.48,2.88.15,2.1.46,2.88c.31.78.76,1.37,1.34,1.75.59.38,1.27.57,2.06.57Z" style="fill: #1d1d1b;"/>
      <path d="M198.26,201.55c-.97,0-1.75-.25-2.35-.76-.6-.5-.9-1.31-.9-2.41v-16.72h2.97v16.44c0,.34.09.59.27.76.18.17.43.25.77.25h1.18v2.44h-1.93Z" style="fill: #1d1d1b;"/>
      <path d="M207.05,201.88c-1.55,0-2.79-.35-3.71-1.06-.92-.71-1.39-1.71-1.39-3s.39-2.29,1.16-3.01c.77-.72,1.97-1.24,3.6-1.55l5.12-.98c0-1.16-.27-2.02-.81-2.59-.54-.57-1.34-.85-2.41-.85-.95,0-1.7.21-2.24.63-.54.42-.92,1.04-1.12,1.86l-3.05-.2c.28-1.49.98-2.67,2.09-3.53,1.11-.86,2.55-1.29,4.33-1.29,2.02,0,3.55.54,4.61,1.61,1.05,1.07,1.58,2.58,1.58,4.52v5.8c0,.35.06.6.18.74.12.14.32.21.6.21h.53v2.35c-.09.02-.24.04-.45.06-.21.02-.42.03-.64.03-.63,0-1.18-.1-1.64-.31-.46-.21-.8-.55-1.02-1.02-.22-.48-.34-1.12-.34-1.92l.31.14c-.15.65-.47,1.23-.97,1.74-.5.5-1.12.9-1.88,1.19-.76.29-1.57.43-2.45.43ZM207.53,199.53c.9,0,1.66-.17,2.3-.52.63-.35,1.13-.83,1.48-1.44.35-.62.53-1.32.53-2.1v-.95l-4.37.84c-.9.17-1.53.43-1.89.8-.36.36-.55.83-.55,1.39,0,.63.22,1.12.66,1.47.44.35,1.05.52,1.83.52Z" style="fill: #1d1d1b;"/>
      <path d="M231.33,205.75h-2.97v-7.39l.34.34c-.19.65-.51,1.22-.97,1.69-.46.48-1.01.84-1.67,1.11s-1.35.39-2.1.39c-1.46,0-2.66-.36-3.6-1.08-.94-.72-1.64-1.67-2.1-2.84-.46-1.18-.69-2.46-.69-3.86s.23-2.69.69-3.86c.46-1.18,1.16-2.12,2.1-2.84s2.14-1.08,3.6-1.08c1.14,0,2.14.28,3,.85s1.47,1.4,1.82,2.51l-.34.17.08-3.19h2.8v19.1ZM224.5,199.31c.8,0,1.49-.19,2.07-.57.58-.38,1.02-.97,1.33-1.75.31-.78.46-1.75.46-2.88s-.16-2.1-.48-2.88c-.32-.78-.77-1.37-1.34-1.75-.58-.38-1.26-.57-2.04-.57-1.19,0-2.13.46-2.81,1.37-.68.92-1.02,2.19-1.02,3.84s.34,2.92,1.02,3.84c.68.91,1.62,1.37,2.81,1.37Z" style="fill: #1d1d1b;"/>
      <path d="M240.43,201.88c-1.49,0-2.68-.5-3.57-1.5-.89-1-1.33-2.38-1.33-4.16v-9.58h2.97v8.82c0,1.34.23,2.33.7,2.97.47.63,1.18.95,2.13.95,1.08,0,1.93-.35,2.53-1.05.61-.7.91-1.68.91-2.95v-8.74h2.97v14.9h-2.77l-.06-3.89.42.17c-.26,1.31-.81,2.31-1.65,3.01-.84.7-1.92,1.05-3.25,1.05Z" style="fill: #1d1d1b;"/>
      <path d="M257.79,201.88c-1.46,0-2.71-.32-3.77-.95-1.05-.63-1.87-1.54-2.44-2.72-.57-1.18-.85-2.55-.85-4.12s.28-2.94.85-4.1c.57-1.17,1.38-2.07,2.42-2.72,1.04-.64,2.28-.97,3.7-.97,1.34,0,2.53.31,3.56.94,1.03.63,1.82,1.53,2.39,2.7.57,1.18.85,2.59.85,4.26v.76h-10.7c.07,1.46.46,2.55,1.16,3.28s1.65,1.09,2.84,1.09c.88,0,1.61-.21,2.18-.62.58-.41.98-.96,1.2-1.65l3.08.2c-.39,1.38-1.16,2.5-2.31,3.35-1.15.85-2.54,1.27-4.19,1.27ZM253.81,192.73h7.56c-.09-1.33-.47-2.31-1.13-2.94-.66-.63-1.51-.95-2.53-.95s-1.94.33-2.62.99c-.68.66-1.11,1.63-1.27,2.9Z" style="fill: #1d1d1b;"/>
      <path d="M273.24,201.88c-1.4,0-2.58-.21-3.54-.64-.96-.43-1.7-1.02-2.23-1.78-.52-.76-.82-1.63-.9-2.62l3.05-.14c.15.82.5,1.48,1.06,1.96s1.41.73,2.55.73c.93,0,1.67-.15,2.21-.45.54-.3.81-.77.81-1.43,0-.35-.09-.66-.27-.91s-.52-.47-1.02-.64c-.5-.18-1.25-.35-2.24-.52-1.47-.28-2.63-.61-3.47-.98-.84-.37-1.44-.85-1.79-1.43-.36-.58-.53-1.28-.53-2.1,0-1.36.51-2.47,1.53-3.33,1.02-.86,2.49-1.29,4.41-1.29,1.29,0,2.37.22,3.25.66.88.44,1.56,1.03,2.06,1.76.49.74.81,1.56.94,2.48l-3.05.17c-.09-.52-.28-.98-.55-1.36-.27-.38-.63-.68-1.08-.9-.45-.21-.98-.32-1.6-.32-.95,0-1.66.19-2.13.56-.47.37-.7.86-.7,1.46,0,.45.11.81.32,1.09.21.28.56.51,1.05.69s1.13.33,1.93.46c1.55.26,2.76.58,3.64.97.88.38,1.49.85,1.85,1.41s.53,1.24.53,2.04c0,.93-.26,1.73-.78,2.38-.52.65-1.24,1.15-2.16,1.5-.92.35-1.97.52-3.16.52Z" style="fill: #1d1d1b;"/>
      <path d="M295.56,201.88c-1.46,0-2.71-.32-3.77-.95-1.05-.63-1.87-1.54-2.44-2.72-.57-1.18-.85-2.55-.85-4.12s.28-2.94.85-4.1c.57-1.17,1.38-2.07,2.42-2.72,1.04-.64,2.28-.97,3.7-.97,1.34,0,2.53.31,3.56.94,1.03.63,1.82,1.53,2.39,2.7.57,1.18.85,2.59.85,4.26v.76h-10.7c.07,1.46.46,2.55,1.16,3.28s1.65,1.09,2.84,1.09c.88,0,1.61-.21,2.18-.62.58-.41.98-.96,1.2-1.65l3.08.2c-.39,1.38-1.16,2.5-2.31,3.35-1.15.85-2.54,1.27-4.19,1.27ZM291.58,192.73h7.56c-.09-1.33-.47-2.31-1.13-2.94-.66-.63-1.51-.95-2.53-.95s-1.94.33-2.62.99c-.68.66-1.11,1.63-1.27,2.9Z" style="fill: #1d1d1b;"/>
      <path d="M304.05,189.09v-2.44h9.18v2.44h-9.18ZM310.46,201.55c-1.42,0-2.46-.33-3.14-.98-.67-.65-1.01-1.67-1.01-3.05v-14.36h2.97v14.14c0,.69.15,1.17.45,1.43.3.26.76.39,1.37.39h2.13v2.44h-2.77Z" style="fill: #1d1d1b;"/>
      <path d="M329.16,201.88c-1.42,0-2.66-.32-3.72-.95-1.06-.63-1.89-1.54-2.46-2.72-.58-1.18-.87-2.55-.87-4.12s.29-2.94.87-4.1c.58-1.17,1.4-2.07,2.46-2.72,1.06-.64,2.31-.97,3.72-.97,1.21,0,2.29.21,3.23.63s1.71,1.03,2.3,1.83c.59.8.97,1.78,1.13,2.94l-3.11.17c-.15-.97-.54-1.71-1.18-2.23-.63-.51-1.43-.77-2.38-.77-1.25,0-2.23.46-2.93,1.39-.7.92-1.05,2.2-1.05,3.82s.35,2.9,1.05,3.82c.7.92,1.68,1.39,2.93,1.39.95,0,1.75-.27,2.38-.8.63-.53,1.03-1.34,1.18-2.42l3.11.17c-.17,1.14-.55,2.13-1.13,2.97-.59.84-1.35,1.49-2.3,1.96-.94.47-2.02.7-3.23.7Z" style="fill: #1d1d1b;"/>
      <path d="M342.99,201.88c-1.55,0-2.79-.35-3.71-1.06-.92-.71-1.39-1.71-1.39-3s.39-2.29,1.16-3.01c.77-.72,1.97-1.24,3.6-1.55l5.12-.98c0-1.16-.27-2.02-.81-2.59-.54-.57-1.34-.85-2.41-.85-.95,0-1.7.21-2.24.63-.54.42-.91,1.04-1.12,1.86l-3.05-.2c.28-1.49.98-2.67,2.09-3.53,1.11-.86,2.55-1.29,4.33-1.29,2.02,0,3.55.54,4.61,1.61,1.05,1.07,1.58,2.58,1.58,4.52v5.8c0,.35.06.6.18.74.12.14.32.21.6.21h.53v2.35c-.09.02-.24.04-.45.06-.21.02-.42.03-.64.03-.63,0-1.18-.1-1.64-.31-.46-.21-.8-.55-1.02-1.02-.22-.48-.34-1.12-.34-1.92l.31.14c-.15.65-.47,1.23-.97,1.74-.49.5-1.12.9-1.88,1.19-.76.29-1.57.43-2.45.43ZM343.47,199.53c.9,0,1.66-.17,2.3-.52.63-.35,1.13-.83,1.48-1.44.35-.62.53-1.32.53-2.1v-.95l-4.37.84c-.9.17-1.53.43-1.89.8-.36.36-.55.83-.55,1.39,0,.63.22,1.12.66,1.47.44.35,1.05.52,1.83.52Z" style="fill: #1d1d1b;"/>
      <path d="M360.58,201.88c-1.42,0-2.66-.32-3.72-.95-1.06-.63-1.89-1.54-2.46-2.72-.58-1.18-.87-2.55-.87-4.12s.29-2.94.87-4.1c.58-1.17,1.4-2.07,2.46-2.72,1.06-.64,2.31-.97,3.72-.97,1.21,0,2.29.21,3.23.63s1.71,1.03,2.3,1.83c.59.8.97,1.78,1.13,2.94l-3.11.17c-.15-.97-.54-1.71-1.18-2.23-.63-.51-1.43-.77-2.38-.77-1.25,0-2.23.46-2.93,1.39-.7.92-1.05,2.2-1.05,3.82s.35,2.9,1.05,3.82c.7.92,1.68,1.39,2.93,1.39.95,0,1.75-.27,2.38-.8.63-.53,1.03-1.34,1.18-2.42l3.11.17c-.17,1.14-.55,2.13-1.13,2.97-.59.84-1.35,1.49-2.3,1.96-.94.47-2.02.7-3.23.7Z" style="fill: #1d1d1b;"/>
      <path d="M369.93,201.55v-19.88h2.97v8.34l-.36-.06c.17-.84.48-1.53.92-2.06.45-.53,1-.93,1.65-1.19.65-.26,1.37-.39,2.16-.39,1.08,0,2,.24,2.74.71.75.48,1.31,1.14,1.69,2,.38.86.57,1.84.57,2.94v9.58h-2.97v-8.79c0-1.34-.23-2.34-.69-2.98-.46-.64-1.17-.97-2.14-.97-1.08,0-1.95.34-2.6,1.02s-.98,1.68-.98,2.98v8.74h-2.97Z" style="fill: #1d1d1b;"/>
      <path d="M392.27,201.88c-1.46,0-2.71-.32-3.77-.95-1.05-.63-1.87-1.54-2.44-2.72-.57-1.18-.85-2.55-.85-4.12s.28-2.94.85-4.1c.57-1.17,1.38-2.07,2.42-2.72,1.04-.64,2.28-.97,3.7-.97,1.34,0,2.53.31,3.56.94,1.03.63,1.82,1.53,2.39,2.7.57,1.18.85,2.59.85,4.26v.76h-10.7c.07,1.46.46,2.55,1.16,3.28s1.65,1.09,2.84,1.09c.88,0,1.61-.21,2.18-.62.58-.41.98-.96,1.2-1.65l3.08.2c-.39,1.38-1.16,2.5-2.31,3.35-1.15.85-2.54,1.27-4.19,1.27ZM388.29,192.73h7.56c-.09-1.33-.47-2.31-1.13-2.94-.66-.63-1.51-.95-2.53-.95s-1.94.33-2.62.99c-.68.66-1.11,1.63-1.27,2.9Z" style="fill: #1d1d1b;"/>
      <path d="M400.76,189.09v-2.44h9.18v2.44h-9.18ZM407.17,201.55c-1.42,0-2.46-.33-3.14-.98-.67-.65-1.01-1.67-1.01-3.05v-14.36h2.97v14.14c0,.69.15,1.17.45,1.43.3.26.76.39,1.37.39h2.13v2.44h-2.77Z" style="fill: #1d1d1b;"/>
      <path d="M418.25,201.88c-1.4,0-2.58-.21-3.54-.64-.96-.43-1.7-1.02-2.23-1.78-.52-.76-.82-1.63-.9-2.62l3.05-.14c.15.82.5,1.48,1.06,1.96s1.41.73,2.55.73c.93,0,1.67-.15,2.21-.45.54-.3.81-.77.81-1.43,0-.35-.09-.66-.27-.91s-.52-.47-1.02-.64c-.5-.18-1.25-.35-2.24-.52-1.47-.28-2.63-.61-3.47-.98-.84-.37-1.44-.85-1.79-1.43-.36-.58-.53-1.28-.53-2.1,0-1.36.51-2.47,1.53-3.33,1.02-.86,2.49-1.29,4.41-1.29,1.29,0,2.37.22,3.25.66.88.44,1.56,1.03,2.06,1.76.49.74.81,1.56.94,2.48l-3.05.17c-.09-.52-.28-.98-.55-1.36-.27-.38-.63-.68-1.08-.9-.45-.21-.98-.32-1.6-.32-.95,0-1.66.19-2.13.56-.47.37-.7.86-.7,1.46,0,.45.11.81.32,1.09.21.28.56.51,1.05.69s1.13.33,1.93.46c1.55.26,2.76.58,3.64.97.88.38,1.49.85,1.85,1.41s.53,1.24.53,2.04c0,.93-.26,1.73-.78,2.38-.52.65-1.24,1.15-2.16,1.5-.92.35-1.97.52-3.16.52Z" style="fill: #1d1d1b;"/>
    </g>
  </g>
</svg>